<svg width="144" height="82" viewBox="0 0 144 82" fill="none" xmlns="http://www.w3.org/2000/svg">
<g clip-path="url(#clip0_31_3414)">
<rect width="144" height="82" fill="#0c0c11" rx="3"/>
<path d="M12.3855 20.3853L93.3743 46.3181" stroke="rgba(156,163,175,0.5)" stroke-width="1.6" stroke-linecap="round" stroke-linejoin="bevel" stroke-dasharray="3.2 3.2"/>
<path fill-rule="evenodd" clip-rule="evenodd" d="M111.598 20.3853L111.566 17.9501L111.477 15.5181L111.33 13.0861L111.118 10.6605L110.85 8.24126L110.523 5.82813L110.136 3.4243L109.691 1.03038L109.186 -1.35171L108.622 -3.72099L108.005 -6.07554L107.326 -8.41409L106.59 -10.7354L105.797 -13.0378L104.949 -15.3203L104.046 -17.5811L103.086 -19.8192L102.072 -22.033L101.003 -24.2215L99.8832 -26.3827L98.7088 -28.5159L97.4832 -30.6195L96.2032 -32.6928L94.8752 -34.7338L93.4993 -36.7418L92.072 -38.7152L90.5968 -40.6528L89.0768 -42.5539L87.5088 -44.4173L85.8961 -46.2413L84.2384 -48.0253L82.5393 -49.768L80.7952 -51.4685L79.0128 -53.1258L77.1888 -54.7389L75.3232 -56.3066L73.4224 -57.8282L71.4864 -59.3024L69.512 -60.729L67.5056 -62.1066L65.464 -63.4343L63.3904 -64.7117L61.2848 -65.9379L59.1536 -67.112L56.9904 -68.2333L54.8048 -69.3015L52.5904 -70.3152L50.3504 -71.2746L48.0912 -72.1789L45.8096 -73.0272L43.5056 -73.8192L41.1856 -74.5546L38.8464 -75.233L36.4912 -75.8535L34.1232 -76.416L31.7393 -76.9203L29.3456 -77.3661L26.9424 -77.753L24.5296 -78.0807L22.1104 -78.3491L19.6816 -78.5581L17.2528 -78.7072L14.8209 -78.7968L12.3856 -78.8269L9.95043 -78.7968L7.51523 -78.7072L5.08644 -78.5581L2.66086 -78.3491L0.238436 -78.0807L-2.17438 -77.753L-4.57758 -77.3661L-6.97117 -76.9203L-9.35195 -76.416L-11.7232 -75.8535L-14.0752 -75.233L-16.4144 -74.5546L-18.7376 -73.8192L-21.0384 -73.0272L-23.3232 -72.1789L-25.5823 -71.2746L-27.8191 -70.3152L-30.0336 -69.3015L-32.2223 -68.2333L-34.3823 -67.112L-36.5168 -65.9379L-38.6223 -64.7117L-40.6928 -63.4343L-42.7344 -62.1066L-44.7439 -60.729L-46.7152 -59.3024L-48.6544 -57.8282L-50.5552 -56.3066L-52.4176 -54.7389L-54.2416 -53.1258L-56.0271 -51.4685L-57.768 -49.768L-59.4704 -48.0253L-61.128 -46.2413L-62.7407 -44.4173L-64.3088 -42.5539L-65.8288 -40.6528L-67.3039 -38.7152L-68.7312 -36.7418L-70.1071 -34.7338L-71.4352 -32.6928L-72.712 -30.6195L-73.9376 -28.5159L-75.112 -26.3827L-76.2352 -24.2215L-77.3039 -22.033L-78.3152 -19.8192L-79.2752 -17.5811L-80.1807 -15.3203L-81.0288 -13.0378L-81.8191 -10.7354L-82.5552 -8.41409L-83.2336 -6.07554L-83.8544 -3.72099L-84.4176 -1.35171L-84.9232 1.03038L-85.368 3.4243L-85.7552 5.82813L-86.0816 8.24126L-86.3504 10.6605L-86.5584 13.0861L-86.7088 15.5181L-86.7984 17.9501L-86.8271 20.3853L-86.7984 22.8205L-86.7088 25.2524L-86.5584 27.6844L-86.3504 30.1101L-86.0816 32.5292L-85.7552 34.9421L-85.368 37.3485L-84.9232 39.7421L-84.4176 42.1228L-83.8544 44.494L-83.2336 46.846L-82.5552 49.1853L-81.8191 51.5085L-81.0288 53.8092L-80.1807 56.0908L-79.2752 58.3533L-78.3152 60.5901L-77.3039 62.8044L-76.2352 64.9933L-75.112 67.1533L-73.9376 69.2876L-72.712 71.3901L-71.4352 73.4637L-70.1071 75.5053L-68.7312 77.5117L-67.3039 79.486L-65.8288 81.4253L-64.3088 83.326L-62.7407 85.1885L-61.128 87.0124L-59.4704 88.7981L-57.768 90.5389L-56.0271 92.2413L-54.2416 93.8989L-52.4176 95.5117L-50.5552 97.0797L-48.6544 98.5997L-46.7152 100.075L-44.7439 101.502L-42.7344 102.878L-40.6928 104.206L-38.6223 105.483L-36.5168 106.708L-34.3823 107.883L-32.2223 109.006L-30.0336 110.072L-27.8191 111.086L-25.5823 112.046L-23.3232 112.952L-21.0384 113.8L-18.7376 114.59L-16.4144 115.326L-14.0752 116.004L-11.7232 116.625L-9.35195 117.188L-6.97117 117.691L-4.57758 118.139L-2.17438 118.526L0.238436 118.852L2.66086 119.121L5.08644 119.329L7.51523 119.48L9.95043 119.569L12.3856 119.598L14.8209 119.569L17.2528 119.48L19.6816 119.329L22.1104 119.121L24.5296 118.852L26.9424 118.526L29.3456 118.139L31.7393 117.691L34.1232 117.188L36.4912 116.625L38.8464 116.004L41.1856 115.326L43.5056 114.59L45.8096 113.8L48.0912 112.952L50.3504 112.046L52.5904 111.086L54.8048 110.072L56.9904 109.006L59.1536 107.883L61.2848 106.708L63.3904 105.483L65.464 104.206L67.5056 102.878L69.512 101.502L71.4864 100.075L73.4224 98.5997L75.3232 97.0797L77.1888 95.5117L79.0128 93.8989L80.7952 92.2413L82.5393 90.5389L84.2384 88.7981L85.8961 87.0124L87.5088 85.1885L89.0768 83.326L90.5968 81.4253L92.072 79.486L93.4993 77.5117L94.8752 75.5053L96.2032 73.4637L97.4832 71.3901L98.7088 69.2876L99.8832 67.1533L101.003 64.9933L102.072 62.8044L103.086 60.5901L104.046 58.3533L104.949 56.0908L105.797 53.8092L106.59 51.5085L107.326 49.1853L108.005 46.846L108.622 44.494L109.186 42.1228L109.691 39.7421L110.136 37.3485L110.523 34.9421L110.85 32.5292L111.118 30.1101L111.33 27.6844L111.477 25.2524L111.566 22.8205L111.598 20.3853Z" stroke="rgba(59,130,246,0.25)" stroke-width="0.5" stroke-linecap="round" stroke-linejoin="bevel" stroke-dasharray="1 1"/>
<path fill-rule="evenodd" clip-rule="evenodd" d="M125.771 20.3853L125.736 17.6045L125.634 14.8237L125.464 12.0461L125.224 9.27168L124.917 6.50687L124.542 3.74879L124.101 1.00127L123.592 -1.73473L123.016 -4.45729L122.373 -7.16481L121.662 -9.85569L120.888 -12.5283L120.046 -15.1811L119.141 -17.8128L118.171 -20.4211L117.141 -23.0051L116.043 -25.5629L114.885 -28.0928L113.662 -30.5936L112.382 -33.064L111.042 -35.5018L109.64 -37.9063L108.178 -40.2752L106.661 -42.608L105.086 -44.9027L103.458 -47.1581L101.771 -49.3728L100.034 -51.5453L98.2416 -53.6749L96.3984 -55.7594L94.504 -57.7984L92.5616 -59.7901L90.568 -61.7335L88.5296 -63.6275L86.4464 -65.4711L84.3152 -67.2627L82.1424 -69.0016L79.928 -70.6864L77.672 -72.3168L75.3776 -73.8912L73.0448 -75.4087L70.6768 -76.8685L68.2736 -78.2698L65.8352 -79.6115L63.3648 -80.8931L60.8624 -82.1136L58.3344 -83.2727L55.7744 -84.369L53.192 -85.4022L50.584 -86.3719L47.9504 -87.2771L45.2976 -88.1178L42.6256 -88.8928L39.9344 -89.6019L37.2272 -90.2451L34.504 -90.8214L31.768 -91.3306L29.0224 -91.7728L26.264 -92.1472L23.4992 -92.4541L20.7248 -92.6928L17.9472 -92.8634L15.1664 -92.9658L12.3856 -93L9.6016 -92.9658L6.82082 -92.8634L4.0432 -92.6928L1.27199 -92.4541L-1.49602 -92.1472L-4.25121 -91.7728L-7 -91.3306L-9.73602 -90.8214L-12.4592 -90.2451L-15.1664 -89.6019L-17.8576 -88.8928L-20.5296 -88.1178L-23.1824 -87.2771L-25.8128 -86.3719L-28.424 -85.4022L-31.0064 -84.369L-33.5632 -83.2727L-36.0944 -82.1136L-38.5936 -80.8931L-41.064 -79.6115L-43.5024 -78.2698L-45.9088 -76.8685L-48.2768 -75.4087L-50.6096 -73.8912L-52.904 -72.3168L-55.16 -70.6864L-57.3744 -69.0016L-59.5472 -67.2627L-61.6752 -65.4711L-63.7616 -63.6275L-65.8 -61.7335L-67.7904 -59.7901L-69.736 -57.7984L-71.6304 -55.7594L-73.4736 -53.6749L-75.2624 -51.5453L-77.0032 -49.3728L-78.6864 -47.1581L-80.3184 -44.9027L-81.8928 -42.608L-83.4096 -40.2752L-84.8688 -37.9063L-86.2704 -35.5018L-87.6144 -33.064L-88.8944 -30.5936L-90.1136 -28.0928L-91.2752 -25.5629L-92.3696 -23.0051L-93.4032 -20.4211L-94.3728 -17.8128L-95.2784 -15.1811L-96.12 -12.5283L-96.8944 -9.85569L-97.6048 -7.16481L-98.2448 -4.45729L-98.824 -1.73473L-99.3328 1.00127L-99.7744 3.74879L-100.149 6.50687L-100.456 9.27168L-100.693 12.0461L-100.866 14.8237L-100.968 17.6045L-101 20.3853L-100.968 23.1693L-100.866 25.9501L-100.693 28.7277L-100.456 31.4989L-100.149 34.2669L-99.7744 37.0221L-99.3328 39.7709L-98.824 42.5069L-98.2448 45.2301L-97.6048 47.9373L-96.8944 50.6285L-96.12 53.3005L-95.2784 55.9533L-94.3728 58.5837L-93.4032 61.1917L-92.3696 63.7773L-91.2752 66.3341L-90.1136 68.8653L-88.8944 71.3644L-87.6144 73.8349L-86.2704 76.2733L-84.8688 78.6765L-83.4096 81.0477L-81.8928 83.3805L-80.3184 85.6749L-78.6864 87.9309L-77.0032 90.1453L-75.2624 92.3181L-73.4736 94.4461L-71.6304 96.5325L-69.736 98.5709L-67.7904 100.561L-65.8 102.504L-63.7616 104.398L-61.6752 106.241L-59.5472 108.033L-57.3744 109.774L-55.16 111.457L-52.904 113.089L-50.6096 114.664L-48.2768 116.18L-45.9088 117.64L-43.5024 119.041L-41.064 120.382L-38.5936 121.665L-36.0944 122.884L-33.5632 124.043L-31.0064 125.14L-28.424 126.174L-25.8128 127.144L-23.1824 128.049L-20.5296 128.891L-17.8576 129.665L-15.1664 130.372L-12.4592 131.016L-9.73602 131.592L-7 132.104L-4.25121 132.545L-1.49602 132.92L1.27199 133.227L4.0432 133.464L6.82082 133.636L9.6016 133.739L12.3856 133.771L15.1664 133.739L17.9472 133.636L20.7248 133.464L23.4992 133.227L26.264 132.92L29.0224 132.545L31.768 132.104L34.504 131.592L37.2272 131.016L39.9344 130.372L42.6256 129.665L45.2976 128.891L47.9504 128.049L50.584 127.144L53.192 126.174L55.7744 125.14L58.3344 124.043L60.8624 122.884L63.3648 121.665L65.8352 120.382L68.2736 119.041L70.6768 117.64L73.0448 116.18L75.3776 114.664L77.672 113.089L79.928 111.457L82.1424 109.774L84.3152 108.033L86.4464 106.241L88.5296 104.398L90.568 102.504L92.5616 100.561L94.504 98.5709L96.3984 96.5325L98.2416 94.4461L100.034 92.3181L101.771 90.1453L103.458 87.9309L105.086 85.6749L106.661 83.3805L108.178 81.0477L109.64 78.6765L111.042 76.2733L112.382 73.8349L113.662 71.3644L114.885 68.8653L116.043 66.3341L117.141 63.7773L118.171 61.1917L119.141 58.5837L120.046 55.9533L120.888 53.3005L121.662 50.6285L122.373 47.9373L123.016 45.2301L123.592 42.5069L124.101 39.7709L124.542 37.0221L124.917 34.2669L125.224 31.4989L125.464 28.7277L125.634 25.9501L125.736 23.1693L125.771 20.3853Z" stroke="rgba(59,130,246,0.2)" stroke-width="0.5" stroke-linecap="round" stroke-linejoin="bevel" stroke-dasharray="1 1"/>
<path d="M12.3855 20.3853L107.89 47.2556" stroke="rgba(156,163,175,0.5)" stroke-width="1.6" stroke-linecap="round" stroke-linejoin="bevel" stroke-dasharray="3.2 3.2"/>
<path fill-rule="evenodd" clip-rule="evenodd" d="M83.2496 20.3853L83.2304 18.6476L83.1664 16.9101L83.0576 15.1724L82.9104 13.4413L82.7184 11.7101L82.4848 9.98846L82.2064 8.27006L81.8896 6.56125L81.528 4.85885L81.128 3.1667L80.6832 1.48477L80.2 -0.185621L79.6752 -1.84355L79.1088 -3.48834L78.5009 -5.11843L77.8576 -6.73347L77.1696 -8.33218L76.4464 -9.9133L75.6848 -11.4765L74.8816 -13.0202L74.0432 -14.544L73.1696 -16.0468L72.2576 -17.5274L71.3072 -18.9853L70.3248 -20.4195L69.304 -21.8291L68.2512 -23.2131L67.1632 -24.5712L66.0464 -25.9021L64.8944 -27.2052L63.7104 -28.4794L62.4944 -29.7242L61.2496 -30.9389L59.976 -32.1226L58.6736 -33.2746L57.3424 -34.3946L55.9824 -35.4813L54.6 -36.5344L53.1888 -37.5533L51.7552 -38.5373L50.2993 -39.4858L48.8176 -40.3981L47.3136 -41.2739L45.7904 -42.1127L44.248 -42.9136L42.6832 -43.6765L41.1024 -44.4007L39.5024 -45.0861L37.8896 -45.7319L36.2576 -46.3379L34.6128 -46.9037L32.9552 -47.4288L31.2848 -47.9133L29.6048 -48.3565L27.912 -48.7584L26.2096 -49.1187L24.5009 -49.4371L22.7824 -49.7133L21.0609 -49.9476L19.3296 -50.1392L17.5984 -50.2883L15.8609 -50.3949L14.1232 -50.4589L12.3856 -50.4803L10.6448 -50.4589L8.90722 -50.3949L7.17285 -50.2883L5.43843 -50.1392L3.71042 -49.9476L1.98562 -49.7133L0.270423 -49.4371L-1.44157 -49.1187L-3.14075 -48.7584L-4.83356 -48.3565L-6.51676 -47.9133L-8.18715 -47.4288L-9.84477 -46.9037L-11.4896 -46.3379L-13.1184 -45.7319L-14.7344 -45.0861L-16.3344 -44.4007L-17.9152 -43.6765L-19.4768 -42.9136L-21.0223 -42.1127L-22.5456 -41.2739L-24.0464 -40.3981L-25.528 -39.4858L-26.9872 -38.5373L-28.4207 -37.5533L-29.832 -36.5344L-31.2144 -35.4813L-32.5712 -34.3946L-33.9023 -33.2746L-35.2048 -32.1226L-36.4816 -30.9389L-37.7264 -29.7242L-38.9391 -28.4794L-40.1232 -27.2052L-41.2752 -25.9021L-42.3952 -24.5712L-43.4832 -23.2131L-44.536 -21.8291L-45.5536 -20.4195L-46.5391 -18.9853L-47.4864 -17.5274L-48.3984 -16.0468L-49.2752 -14.544L-50.1136 -13.0202L-50.9136 -11.4765L-51.6784 -9.9133L-52.4016 -8.33218L-53.0864 -6.73347L-53.7328 -5.11843L-54.3376 -3.48834L-54.904 -1.84355L-55.4288 -0.185621L-55.9152 1.48477L-56.3568 3.1667L-56.76 4.85885L-57.1184 6.56125L-57.4384 8.27006L-57.7136 9.98846L-57.9472 11.7101L-58.1391 13.4413L-58.2896 15.1724L-58.3952 16.9101L-58.4591 18.6476L-58.4816 20.3853L-58.4591 22.126L-58.3952 23.8637L-58.2896 25.5981L-58.1391 27.3324L-57.9472 29.0605L-57.7136 30.7853L-57.4384 32.5005L-57.1184 34.2124L-56.76 35.9117L-56.3568 37.6044L-55.9152 39.2876L-55.4288 40.9581L-54.904 42.6156L-54.3376 44.2605L-53.7328 45.8892L-53.0864 47.5053L-52.4016 49.1053L-51.6784 50.686L-50.9136 52.2476L-50.1136 53.7933L-49.2752 55.3165L-48.3984 56.8172L-47.4864 58.2989L-46.5391 59.7581L-45.5536 61.1917L-44.536 62.5997L-43.4832 63.9853L-42.3952 65.3421L-41.2752 66.6733L-40.1232 67.9756L-38.9391 69.2524L-37.7264 70.4972L-36.4816 71.7101L-35.2048 72.894L-33.9023 74.046L-32.5712 75.166L-31.2144 76.254L-29.832 77.3069L-28.4207 78.3244L-26.9872 79.3101L-25.528 80.2572L-24.0464 81.1692L-22.5456 82.046L-21.0223 82.8844L-19.4768 83.6844L-17.9152 84.4492L-16.3344 85.1724L-14.7344 85.8572L-13.1184 86.5037L-11.4896 87.1085L-9.84477 87.6749L-8.18715 88.1997L-6.51676 88.686L-4.83356 89.1276L-3.14075 89.5308L-1.44157 89.8892L0.270423 90.2092L1.98562 90.4844L3.71042 90.7181L5.43843 90.9101L7.17285 91.0605L8.90722 91.166L10.6448 91.2301L12.3856 91.2524L14.1232 91.2301L15.8609 91.166L17.5984 91.0605L19.3296 90.9101L21.0609 90.7181L22.7824 90.4844L24.5009 90.2092L26.2096 89.8892L27.912 89.5308L29.6048 89.1276L31.2848 88.686L32.9552 88.1997L34.6128 87.6749L36.2576 87.1085L37.8896 86.5037L39.5024 85.8572L41.1024 85.1724L42.6832 84.4492L44.248 83.6844L45.7904 82.8844L47.3136 82.046L48.8176 81.1692L50.2993 80.2572L51.7552 79.3101L53.1888 78.3244L54.6 77.3069L55.9824 76.254L57.3424 75.166L58.6736 74.046L59.976 72.894L61.2496 71.7101L62.4944 70.4972L63.7104 69.2524L64.8944 67.9756L66.0464 66.6733L67.1632 65.3421L68.2512 63.9853L69.304 62.5997L70.3248 61.1917L71.3072 59.7581L72.2576 58.2989L73.1696 56.8172L74.0432 55.3165L74.8816 53.7933L75.6848 52.2476L76.4464 50.686L77.1696 49.1053L77.8576 47.5053L78.5009 45.8892L79.1088 44.2605L79.6752 42.6156L80.2 40.9581L80.6832 39.2876L81.128 37.6044L81.528 35.9117L81.8896 34.2124L82.2064 32.5005L82.4848 30.7853L82.7184 29.0605L82.9104 27.3324L83.0576 25.5981L83.1664 23.8637L83.2304 22.126L83.2496 20.3853Z" stroke="rgba(59,130,246,0.3)" stroke-width="0.5" stroke-linecap="round" stroke-linejoin="bevel" stroke-dasharray="1 1"/>
<path d="M12.3855 20.3853L79.0159 44.5165" stroke="rgba(156,163,175,0.5)" stroke-width="1.6" stroke-linecap="round" stroke-linejoin="bevel" stroke-dasharray="3.2 3.2"/>
<path d="M122.539 47.2556L12.3855 20.3853" stroke="rgba(156,163,175,0.5)" stroke-width="1.6" stroke-linecap="round" stroke-linejoin="bevel" stroke-dasharray="3.2 3.2"/>
<path fill-rule="evenodd" clip-rule="evenodd" d="M97.4224 20.3853L97.3968 18.2989L97.32 16.2125L97.192 14.1293L97.0128 12.0493L96.7856 9.97568L96.504 7.90849L96.1712 5.84736L95.7904 3.79552L95.3584 1.75361L94.8752 -0.277116L94.344 -2.29536L93.7616 -4.29983L93.1312 -6.2896L92.4528 -8.26303L91.7264 -10.2195L90.952 -12.1574L90.1296 -14.0755L89.2592 -15.9731L88.344 -17.849L87.384 -19.7014L86.376 -21.5299L85.3264 -23.3331L84.2288 -25.1101L83.0928 -26.8595L81.912 -28.5805L80.6896 -30.272L79.4256 -31.9331L78.12 -33.5626L76.776 -35.1597L75.3936 -36.7232L73.9728 -38.2522L72.5168 -39.7462L71.0224 -41.2038L69.4928 -42.6243L67.9312 -44.0067L66.3344 -45.3504L64.7024 -46.6547L63.0416 -47.9184L61.352 -49.1411L59.6304 -50.3219L57.88 -51.4598L56.104 -52.5549L54.2992 -53.6057L52.472 -54.6122L50.6192 -55.5734L48.744 -56.489L46.8464 -57.3581L44.9264 -58.1802L42.9904 -58.9552L41.032 -59.6826L39.0608 -60.3616L37.0704 -60.9917L35.064 -61.5731L33.048 -62.1049L31.016 -62.5872L28.9744 -63.0195L26.9232 -63.4016L24.8624 -63.7331L22.7952 -64.0141L20.7184 -64.2441L18.6416 -64.423L16.5584 -64.551L14.472 -64.6278L12.3856 -64.6534L10.296 -64.6278L8.21281 -64.551L6.1296 -64.423L4.0496 -64.2441L1.97601 -64.0141L-0.0944206 -63.7331L-2.1552 -63.4016L-4.20641 -63.0195L-6.24801 -62.5872L-8.2768 -62.1049L-10.296 -61.5731L-12.3024 -60.9917L-14.2896 -60.3616L-16.264 -59.6826L-18.2192 -58.9552L-20.1584 -58.1802L-22.0784 -57.3581L-23.976 -56.489L-25.8512 -55.5734L-27.704 -54.6122L-29.5312 -53.6057L-31.336 -52.5549L-33.112 -51.4598L-34.8624 -50.3219L-36.5808 -49.1411L-38.2736 -47.9184L-39.9344 -46.6547L-41.5632 -45.3504L-43.16 -44.0067L-44.7248 -42.6243L-46.2544 -41.2038L-47.7488 -39.7462L-49.2048 -38.2522L-50.6256 -36.7232L-52.008 -35.1597L-53.352 -33.5626L-54.6544 -31.9331L-55.9184 -30.272L-57.1408 -28.5805L-58.3216 -26.8595L-59.4608 -25.1101L-60.5552 -23.3331L-61.608 -21.5299L-62.6128 -19.7014L-63.576 -17.849L-64.4912 -15.9731L-65.3584 -14.0755L-66.1808 -12.1574L-66.9552 -10.2195L-67.6848 -8.26303L-68.3632 -6.2896L-68.9936 -4.29983L-69.576 -2.29536L-70.1072 -0.277116L-70.5872 1.75361L-71.0224 3.79552L-71.4032 5.84736L-71.736 7.90849L-72.0144 9.97568L-72.2448 12.0493L-72.424 14.1293L-72.552 16.2125L-72.6288 18.2989L-72.6544 20.3853L-72.6288 22.4717L-72.552 24.5581L-72.424 26.6413L-72.2448 28.7213L-72.0144 30.7949L-71.736 32.8653L-71.4032 34.9229L-71.0224 36.9773L-70.5872 39.0189L-70.1072 41.0477L-69.576 43.0669L-68.9936 45.0701L-68.3632 47.0605L-67.6848 49.0349L-66.9552 50.9901L-66.1808 52.9293L-65.3584 54.8461L-64.4912 56.7437L-63.576 58.6221L-62.6128 60.4717L-61.608 62.3021L-60.5552 64.1037L-59.4608 65.8829L-58.3216 67.6301L-57.1408 69.3517L-55.9184 71.0445L-54.6544 72.7053L-53.352 74.3341L-52.008 75.9309L-50.6256 77.4957L-49.2048 79.0253L-47.7488 80.5165L-46.2544 81.9757L-44.7248 83.3965L-43.16 84.7789L-41.5632 86.1229L-39.9344 87.4253L-38.2736 88.6893L-36.5808 89.9117L-34.8624 91.0925L-33.112 92.2317L-31.336 93.3261L-29.5312 94.3789L-27.704 95.3837L-25.8512 96.3437L-23.976 97.2621L-22.0784 98.1293L-20.1584 98.9517L-18.2192 99.7261L-16.264 100.456L-14.2896 101.134L-12.3024 101.764L-10.296 102.344L-8.2768 102.878L-6.24801 103.358L-4.20641 103.79L-2.1552 104.174L-0.0944206 104.504L1.97601 104.785L4.0496 105.016L6.1296 105.195L8.21281 105.323L10.296 105.4L12.3856 105.425L14.472 105.4L16.5584 105.323L18.6416 105.195L20.7184 105.016L22.7952 104.785L24.8624 104.504L26.9232 104.174L28.9744 103.79L31.016 103.358L33.048 102.878L35.064 102.344L37.0704 101.764L39.0608 101.134L41.032 100.456L42.9904 99.7261L44.9264 98.9517L46.8464 98.1293L48.744 97.2621L50.6192 96.3437L52.472 95.3837L54.2992 94.3789L56.104 93.3261L57.88 92.2317L59.6304 91.0925L61.352 89.9117L63.0416 88.6893L64.7024 87.4253L66.3344 86.1229L67.9312 84.7789L69.4928 83.3965L71.0224 81.9757L72.5168 80.5165L73.9728 79.0253L75.3936 77.4957L76.776 75.9309L78.12 74.3341L79.4256 72.7053L80.6896 71.0445L81.912 69.3517L83.0928 67.6301L84.2288 65.8829L85.3264 64.1037L86.376 62.3021L87.384 60.4717L88.344 58.6221L89.2592 56.7437L90.1296 54.8461L90.952 52.9293L91.7264 50.9901L92.4528 49.0349L93.1312 47.0605L93.7616 45.0701L94.344 43.0669L94.8752 41.0477L95.3584 39.0189L95.7904 36.9773L96.1712 34.9229L96.504 32.8653L96.7856 30.7949L97.0128 28.7213L97.192 26.6413L97.32 24.5581L97.3968 22.4717L97.4224 20.3853Z" stroke="rgba(59,130,246,0.3)" stroke-width="0.5" stroke-linecap="round" stroke-linejoin="bevel" stroke-dasharray="1 1"/>
<path fill-rule="evenodd" clip-rule="evenodd" d="M80.9071 44.5165L80.9039 44.4684V44.4236L80.9007 44.3756L80.8975 44.3308L80.8911 44.2828L80.8847 44.2381L80.8783 44.1933L80.8687 44.1452L80.8591 44.1004L80.8495 44.0556L80.8367 44.0108L80.8239 43.966L80.8111 43.9213L80.7951 43.8797L80.7791 43.8349L80.7631 43.7933L80.7439 43.7484L80.7247 43.7068L80.7055 43.6652L80.6831 43.6236L80.6607 43.5852L80.6383 43.5436L80.6127 43.5052L80.5871 43.4668L80.5615 43.4284L80.5327 43.39L80.5071 43.3517L80.4783 43.3165L80.4463 43.2813L80.4175 43.246L80.3855 43.2108L80.3535 43.1788L80.3183 43.1468L80.2863 43.1149L80.2511 43.0828L80.2159 43.054L80.1775 43.0252L80.1423 42.9965L80.1039 42.9708L80.0655 42.9452L80.0271 42.9197L79.9887 42.894L79.9471 42.8717L79.9055 42.8492L79.8671 42.8268L79.8255 42.8076L79.7807 42.7884L79.7391 42.7692L79.6975 42.7533L79.6527 42.7372L79.6079 42.7213L79.5631 42.7052L79.5215 42.6924L79.4767 42.6828L79.4287 42.67L79.3839 42.6604L79.3391 42.654L79.2943 42.6444L79.2463 42.6413L79.2015 42.6349L79.1535 42.6317L79.1087 42.6284L79.0639 42.6252H79.0159H78.9711L78.9231 42.6284L78.8783 42.6317L78.8303 42.6349L78.7855 42.6413L78.7375 42.6444L78.6927 42.654L78.6479 42.6604L78.6031 42.67L78.5583 42.6828L78.5135 42.6924L78.4687 42.7052L78.4239 42.7213L78.3791 42.7372L78.3375 42.7533L78.2927 42.7692L78.2511 42.7884L78.2095 42.8076L78.1679 42.8268L78.1263 42.8492L78.0847 42.8717L78.0431 42.894L78.0047 42.9197L77.9663 42.9452L77.9279 42.9708L77.8895 42.9965L77.8543 43.0252L77.8159 43.054L77.7807 43.0828L77.7455 43.1149L77.7135 43.1468L77.6783 43.1788L77.6463 43.2108L77.6143 43.246L77.5855 43.2813L77.5567 43.3165L77.5247 43.3517L77.4991 43.39L77.4703 43.4284L77.4447 43.4668L77.4191 43.5052L77.3967 43.5436L77.3711 43.5852L77.3487 43.6236L77.3295 43.6652L77.3071 43.7068L77.2879 43.7484L77.2687 43.7933L77.2527 43.8349L77.2367 43.8797L77.2207 43.9213L77.2079 43.966L77.1951 44.0108L77.1823 44.0556L77.1727 44.1004L77.1631 44.1452L77.1535 44.1933L77.1471 44.2381L77.1407 44.2828L77.1343 44.3308L77.1311 44.3756L77.1279 44.4236V44.4684V44.5165V44.5613V44.6092L77.1311 44.654L77.1343 44.702L77.1407 44.7468L77.1471 44.7917L77.1535 44.8397L77.1631 44.8844L77.1727 44.9292L77.1823 44.974L77.1951 45.0188L77.2079 45.0636L77.2207 45.1084L77.2367 45.1533L77.2527 45.1949L77.2687 45.2397L77.2879 45.2813L77.3071 45.3228L77.3295 45.3644L77.3487 45.406L77.3711 45.4476L77.3967 45.486L77.4191 45.5276L77.4447 45.566L77.4703 45.6044L77.4991 45.6397L77.5247 45.6781L77.5567 45.7133L77.5855 45.7484L77.6143 45.7836L77.6463 45.8188L77.6783 45.8508L77.7135 45.8828L77.7455 45.9149L77.7807 45.9468L77.8159 45.9756L77.8543 46.0044L77.8895 46.0333L77.9279 46.0588L77.9663 46.0876L78.0047 46.1133L78.0431 46.1356L78.0847 46.1581L78.1263 46.1804L78.1679 46.2028L78.2095 46.222L78.2511 46.2444L78.2927 46.2604L78.3375 46.2797L78.3791 46.2956L78.4239 46.3084L78.4687 46.3244L78.5135 46.3372L78.5583 46.3468L78.6031 46.3597L78.6479 46.3692L78.6927 46.3756L78.7375 46.3852L78.7855 46.3917L78.8303 46.3949L78.8783 46.4013H78.9231L78.9711 46.4044H79.0159H79.0639L79.1087 46.4013H79.1535L79.2015 46.3949L79.2463 46.3917L79.2943 46.3852L79.3391 46.3756L79.3839 46.3692L79.4287 46.3597L79.4767 46.3468L79.5215 46.3372L79.5631 46.3244L79.6079 46.3084L79.6527 46.2956L79.6975 46.2797L79.7391 46.2604L79.7807 46.2444L79.8255 46.222L79.8671 46.2028L79.9055 46.1804L79.9471 46.1581L79.9887 46.1356L80.0271 46.1133L80.0655 46.0876L80.1039 46.0588L80.1423 46.0333L80.1775 46.0044L80.2159 45.9756L80.2511 45.9468L80.2863 45.9149L80.3183 45.8828L80.3535 45.8508L80.3855 45.8188L80.4175 45.7836L80.4463 45.7484L80.4783 45.7133L80.5071 45.6781L80.5327 45.6397L80.5615 45.6044L80.5871 45.566L80.6127 45.5276L80.6383 45.486L80.6607 45.4476L80.6831 45.406L80.7055 45.3644L80.7247 45.3228L80.7439 45.2813L80.7631 45.2397L80.7791 45.1949L80.7951 45.1533L80.8111 45.1084L80.8239 45.0636L80.8367 45.0188L80.8495 44.974L80.8591 44.9292L80.8687 44.8844L80.8783 44.8397L80.8847 44.7917L80.8911 44.7468L80.8975 44.702L80.9007 44.654L80.9039 44.6092V44.5613L80.9071 44.5165Z" stroke="#3b82f6" stroke-width="1.6" stroke-linecap="round" stroke-linejoin="bevel"/>
<path fill-rule="evenodd" clip-rule="evenodd" d="M109.778 47.2557V47.2109V47.1629L109.774 47.1181L109.771 47.0701L109.765 47.0253L109.758 46.9805L109.752 46.9325L109.742 46.8877L109.733 46.8429L109.723 46.7981L109.71 46.7533L109.698 46.7085L109.685 46.6637L109.669 46.6189L109.653 46.5773L109.634 46.5325L109.618 46.4909L109.598 46.4493L109.576 46.4077L109.557 46.3661L109.534 46.3245L109.509 46.2861L109.486 46.2445L109.461 46.2061L109.435 46.1677L109.406 46.1293L109.378 46.0941L109.349 46.0589L109.32 46.0237L109.288 45.9885L109.259 45.9533L109.224 45.9213L109.192 45.8893L109.157 45.8573L109.125 45.8253L109.086 45.7965L109.051 45.7677L109.016 45.7389L108.978 45.7101L108.939 45.6845L108.901 45.6589L108.859 45.6365L108.821 45.6109L108.779 45.5885L108.738 45.5693L108.696 45.5469L108.654 45.5277L108.613 45.5117L108.568 45.4925L108.526 45.4765L108.482 45.4637L108.437 45.4477L108.392 45.4349L108.347 45.4221L108.302 45.4125L108.258 45.4029L108.213 45.3933L108.165 45.3869L108.12 45.3805L108.075 45.3773L108.027 45.3709L107.982 45.3677H107.934H107.89H107.842H107.797L107.749 45.3709L107.704 45.3773L107.659 45.3805L107.611 45.3869L107.566 45.3933L107.522 45.4029L107.474 45.4125L107.429 45.4221L107.384 45.4349L107.339 45.4477L107.298 45.4637L107.253 45.4765L107.208 45.4925L107.166 45.5117L107.122 45.5277L107.08 45.5469L107.038 45.5693L106.997 45.5885L106.958 45.6109L106.917 45.6365L106.878 45.6589L106.84 45.6845L106.802 45.7101L106.763 45.7389L106.725 45.7677L106.69 45.7965L106.654 45.8253L106.619 45.8573L106.587 45.8893L106.552 45.9213L106.52 45.9533L106.488 45.9885L106.459 46.0237L106.427 46.0589L106.398 46.0941L106.37 46.1293L106.344 46.1677L106.318 46.2061L106.293 46.2445L106.267 46.2861L106.245 46.3245L106.222 46.3661L106.2 46.4077L106.181 46.4493L106.162 46.4909L106.142 46.5325L106.126 46.5773L106.11 46.6189L106.094 46.6637L106.082 46.7085L106.069 46.7533L106.056 46.7981L106.046 46.8429L106.037 46.8877L106.027 46.9325L106.021 46.9805L106.014 47.0253L106.008 47.0701L106.005 47.1181L106.002 47.1629L105.998 47.2109V47.2557V47.3037L106.002 47.3485L106.005 47.3965L106.008 47.4413L106.014 47.4893L106.021 47.5341L106.027 47.5789L106.037 47.6237L106.046 47.6717L106.056 47.7165L106.069 47.7613L106.082 47.8061L106.094 47.8509L106.11 47.8925L106.126 47.9373L106.142 47.9789L106.162 48.0237L106.181 48.0653L106.2 48.1069L106.222 48.1485L106.245 48.1869L106.267 48.2285L106.293 48.2669L106.318 48.3053L106.344 48.3437L106.37 48.3821L106.398 48.4205L106.427 48.4557L106.459 48.4909L106.488 48.5261L106.52 48.5581L106.552 48.5933L106.587 48.6253L106.619 48.6573L106.654 48.6861L106.69 48.7181L106.725 48.7469L106.763 48.7757L106.802 48.8013L106.84 48.8269L106.878 48.8525L106.917 48.8781L106.958 48.9005L106.997 48.9229L107.038 48.9453L107.08 48.9645L107.122 48.9837L107.166 49.0029L107.208 49.0189L107.253 49.0349L107.298 49.0509L107.339 49.0637L107.384 49.0765L107.429 49.0893L107.474 49.0989L107.522 49.1085L107.566 49.1181L107.611 49.1245L107.659 49.1309L107.704 49.1373L107.749 49.1405L107.797 49.1437L107.842 49.1469H107.89H107.934L107.982 49.1437L108.027 49.1405L108.075 49.1373L108.12 49.1309L108.165 49.1245L108.213 49.1181L108.258 49.1085L108.302 49.0989L108.347 49.0893L108.392 49.0765L108.437 49.0637L108.482 49.0509L108.526 49.0349L108.568 49.0189L108.613 49.0029L108.654 48.9837L108.696 48.9645L108.738 48.9453L108.779 48.9229L108.821 48.9005L108.859 48.8781L108.901 48.8525L108.939 48.8269L108.978 48.8013L109.016 48.7757L109.051 48.7469L109.086 48.7181L109.125 48.6861L109.157 48.6573L109.192 48.6253L109.224 48.5933L109.259 48.5581L109.288 48.5261L109.32 48.4909L109.349 48.4557L109.378 48.4205L109.406 48.3821L109.435 48.3437L109.461 48.3053L109.486 48.2669L109.509 48.2285L109.534 48.1869L109.557 48.1485L109.576 48.1069L109.598 48.0653L109.618 48.0237L109.634 47.9789L109.653 47.9373L109.669 47.8925L109.685 47.8509L109.698 47.8061L109.71 47.7613L109.723 47.7165L109.733 47.6717L109.742 47.6237L109.752 47.5789L109.758 47.5341L109.765 47.4893L109.771 47.4413L109.774 47.3965L109.778 47.3485V47.3037V47.2557Z" stroke="#3b82f6" stroke-width="1.6" stroke-linecap="round" stroke-linejoin="bevel"/>
<path fill-rule="evenodd" clip-rule="evenodd" d="M95.2623 46.3181V46.2733L95.2592 46.2252V46.1804L95.2528 46.1324L95.2496 46.0876L95.2432 46.0428L95.2367 45.9949L95.2271 45.9501L95.2176 45.9052L95.208 45.8604L95.1951 45.8156L95.1823 45.7708L95.1664 45.726L95.1535 45.6813L95.1376 45.6397L95.1183 45.5949L95.1023 45.5533L95.0832 45.5117L95.0608 45.4701L95.0383 45.4285L95.016 45.3869L94.9935 45.3485L94.9712 45.3069L94.9455 45.2685L94.9167 45.2301L94.8912 45.1917L94.8623 45.1565L94.8335 45.1213L94.8048 45.0828L94.7728 45.0508L94.7408 45.0156L94.7087 44.9836L94.6767 44.9485L94.6416 44.9197L94.6064 44.8876L94.5712 44.8588L94.536 44.8301L94.4976 44.8013L94.4623 44.7724L94.4239 44.7469L94.3855 44.7213L94.3439 44.6988L94.3055 44.6733L94.2639 44.6508L94.2223 44.6317L94.1808 44.6092L94.1392 44.5901L94.0976 44.574L94.0528 44.5549L94.0112 44.5388L93.9664 44.5228L93.9216 44.5101L93.8767 44.4972L93.8319 44.4844L93.7871 44.4749L93.7423 44.4652L93.6976 44.4556L93.6496 44.4492L93.6048 44.4428L93.56 44.4365L93.5119 44.4333L93.4671 44.4301H93.4192H93.3744H93.3264H93.2816L93.2335 44.4333L93.1887 44.4365L93.1408 44.4428L93.096 44.4492L93.0512 44.4556L93.0032 44.4652L92.9583 44.4749L92.9135 44.4844L92.8687 44.4972L92.8239 44.5101L92.7792 44.5228L92.7376 44.5388L92.6928 44.5549L92.6512 44.574L92.6064 44.5901L92.5648 44.6092L92.5232 44.6317L92.4816 44.6508L92.4432 44.6733L92.4016 44.6988L92.3632 44.7213L92.3248 44.7469L92.2864 44.7724L92.248 44.8013L92.2096 44.8301L92.1744 44.8588L92.1392 44.8876L92.1039 44.9197L92.0687 44.9485L92.0367 44.9836L92.0048 45.0156L91.9728 45.0508L91.9408 45.0828L91.9119 45.1213L91.8832 45.1565L91.8544 45.1917L91.8287 45.2301L91.8032 45.2685L91.7776 45.3069L91.7519 45.3485L91.7296 45.3869L91.7071 45.4285L91.6848 45.4701L91.6655 45.5117L91.6464 45.5533L91.6271 45.5949L91.6112 45.6397L91.5951 45.6813L91.5792 45.726L91.5664 45.7708L91.5503 45.8156L91.5408 45.8604L91.528 45.9052L91.5183 45.9501L91.5119 45.9949L91.5023 46.0428L91.4992 46.0876L91.4928 46.1324L91.4896 46.1804L91.4864 46.2252L91.4832 46.2733V46.3181V46.366L91.4864 46.4108L91.4896 46.4588L91.4928 46.5036L91.4992 46.5485L91.5023 46.5965L91.5119 46.6413L91.5183 46.686L91.528 46.734L91.5408 46.7788L91.5503 46.8236L91.5664 46.8685L91.5792 46.9101L91.5951 46.9549L91.6112 46.9997L91.6271 47.0413L91.6464 47.0828L91.6655 47.1276L91.6848 47.1692L91.7071 47.2108L91.7296 47.2492L91.7519 47.2908L91.7776 47.3292L91.8032 47.3676L91.8287 47.406L91.8544 47.4444L91.8832 47.4797L91.9119 47.5181L91.9408 47.5533L91.9728 47.5885L92.0048 47.6204L92.0367 47.6556L92.0687 47.6876L92.1039 47.7197L92.1392 47.7485L92.1744 47.7804L92.2096 47.8092L92.248 47.8381L92.2864 47.8636L92.3248 47.8892L92.3632 47.9149L92.4016 47.9404L92.4432 47.9628L92.4816 47.9852L92.5232 48.0076L92.5648 48.0269L92.6064 48.046L92.6512 48.0652L92.6928 48.0813L92.7376 48.0972L92.7792 48.1133L92.8239 48.126L92.8687 48.1388L92.9135 48.1517L92.9583 48.1613L93.0032 48.1708L93.0512 48.1804L93.096 48.1869L93.1408 48.1933L93.1887 48.1997L93.2335 48.2028L93.2816 48.206L93.3264 48.2092H93.3744H93.4192L93.4671 48.206L93.5119 48.2028L93.56 48.1997L93.6048 48.1933L93.6496 48.1869L93.6976 48.1804L93.7423 48.1708L93.7871 48.1613L93.8319 48.1517L93.8767 48.1388L93.9216 48.126L93.9664 48.1133L94.0112 48.0972L94.0528 48.0813L94.0976 48.0652L94.1392 48.046L94.1808 48.0269L94.2223 48.0076L94.2639 47.9852L94.3055 47.9628L94.3439 47.9404L94.3855 47.9149L94.4239 47.8892L94.4623 47.8636L94.4976 47.8381L94.536 47.8092L94.5712 47.7804L94.6064 47.7485L94.6416 47.7197L94.6767 47.6876L94.7087 47.6556L94.7408 47.6204L94.7728 47.5885L94.8048 47.5533L94.8335 47.5181L94.8623 47.4797L94.8912 47.4444L94.9167 47.406L94.9455 47.3676L94.9712 47.3292L94.9935 47.2908L95.016 47.2492L95.0383 47.2108L95.0608 47.1692L95.0832 47.1276L95.1023 47.0828L95.1183 47.0413L95.1376 46.9997L95.1535 46.9549L95.1664 46.9101L95.1823 46.8685L95.1951 46.8236L95.208 46.7788L95.2176 46.734L95.2271 46.686L95.2367 46.6413L95.2432 46.5965L95.2496 46.5485L95.2528 46.5036L95.2592 46.4588V46.4108L95.2623 46.366V46.3181Z" stroke="#3b82f6" stroke-width="1.6" stroke-linecap="round" stroke-linejoin="bevel"/>
<path fill-rule="evenodd" clip-rule="evenodd" d="M124.43 47.2557V47.2109L124.427 47.1629L124.424 47.1181L124.421 47.0701L124.414 47.0253L124.411 46.9805L124.402 46.9325L124.395 46.8877L124.385 46.8429L124.373 46.7981L124.363 46.7533L124.347 46.7085L124.334 46.6637L124.318 46.6189L124.302 46.5773L124.286 46.5325L124.267 46.4909L124.248 46.4493L124.229 46.4077L124.206 46.3661L124.184 46.3245L124.162 46.2861L124.136 46.2445L124.11 46.2061L124.085 46.1677L124.059 46.1293L124.03 46.0941L124.002 46.0589L123.973 46.0237L123.941 45.9885L123.909 45.9533L123.877 45.9213L123.845 45.8893L123.81 45.8573L123.774 45.8253L123.739 45.7965L123.704 45.7677L123.665 45.7389L123.627 45.7101L123.589 45.6845L123.55 45.6589L123.512 45.6365L123.47 45.6109L123.432 45.5885L123.39 45.5693L123.349 45.5469L123.307 45.5277L123.262 45.5117L123.221 45.4925L123.176 45.4765L123.134 45.4637L123.09 45.4477L123.045 45.4349L123 45.4221L122.955 45.4125L122.91 45.4029L122.862 45.3933L122.818 45.3869L122.773 45.3805L122.725 45.3773L122.68 45.3709L122.632 45.3677H122.587H122.539H122.494H122.446L122.402 45.3709L122.354 45.3773L122.309 45.3805L122.264 45.3869L122.216 45.3933L122.171 45.4029L122.126 45.4125L122.082 45.4221L122.037 45.4349L121.992 45.4477L121.947 45.4637L121.902 45.4765L121.861 45.4925L121.816 45.5117L121.774 45.5277L121.733 45.5469L121.691 45.5693L121.65 45.5885L121.608 45.6109L121.57 45.6365L121.528 45.6589L121.49 45.6845L121.451 45.7101L121.416 45.7389L121.378 45.7677L121.342 45.7965L121.307 45.8253L121.272 45.8573L121.237 45.8893L121.205 45.9213L121.173 45.9533L121.141 45.9885L121.109 46.0237L121.08 46.0589L121.051 46.0941L121.022 46.1293L120.997 46.1677L120.968 46.2061L120.942 46.2445L120.92 46.2861L120.898 46.3245L120.875 46.3661L120.853 46.4077L120.834 46.4493L120.811 46.4909L120.795 46.5325L120.776 46.5773L120.76 46.6189L120.747 46.6637L120.731 46.7085L120.718 46.7533L120.709 46.7981L120.696 46.8429L120.686 46.8877L120.68 46.9325L120.67 46.9805L120.664 47.0253L120.661 47.0701L120.654 47.1181V47.1629L120.651 47.2109V47.2557V47.3037L120.654 47.3485V47.3965L120.661 47.4413L120.664 47.4893L120.67 47.5341L120.68 47.5789L120.686 47.6237L120.696 47.6717L120.709 47.7165L120.718 47.7613L120.731 47.8061L120.747 47.8509L120.76 47.8925L120.776 47.9373L120.795 47.9789L120.811 48.0237L120.834 48.0653L120.853 48.1069L120.875 48.1485L120.898 48.1869L120.92 48.2285L120.942 48.2669L120.968 48.3053L120.997 48.3437L121.022 48.3821L121.051 48.4205L121.08 48.4557L121.109 48.4909L121.141 48.5261L121.173 48.5581L121.205 48.5933L121.237 48.6253L121.272 48.6573L121.307 48.6861L121.342 48.7181L121.378 48.7469L121.416 48.7757L121.451 48.8013L121.49 48.8269L121.528 48.8525L121.57 48.8781L121.608 48.9005L121.65 48.9229L121.691 48.9453L121.733 48.9645L121.774 48.9837L121.816 49.0029L121.861 49.0189L121.902 49.0349L121.947 49.0509L121.992 49.0637L122.037 49.0765L122.082 49.0893L122.126 49.0989L122.171 49.1085L122.216 49.1181L122.264 49.1245L122.309 49.1309L122.354 49.1373L122.402 49.1405L122.446 49.1437L122.494 49.1469H122.539H122.587L122.632 49.1437L122.68 49.1405L122.725 49.1373L122.773 49.1309L122.818 49.1245L122.862 49.1181L122.91 49.1085L122.955 49.0989L123 49.0893L123.045 49.0765L123.09 49.0637L123.134 49.0509L123.176 49.0349L123.221 49.0189L123.262 49.0029L123.307 48.9837L123.349 48.9645L123.39 48.9453L123.432 48.9229L123.47 48.9005L123.512 48.8781L123.55 48.8525L123.589 48.8269L123.627 48.8013L123.665 48.7757L123.704 48.7469L123.739 48.7181L123.774 48.6861L123.81 48.6573L123.845 48.6253L123.877 48.5933L123.909 48.5581L123.941 48.5261L123.973 48.4909L124.002 48.4557L124.03 48.4205L124.059 48.3821L124.085 48.3437L124.11 48.3053L124.136 48.2669L124.162 48.2285L124.184 48.1869L124.206 48.1485L124.229 48.1069L124.248 48.0653L124.267 48.0237L124.286 47.9789L124.302 47.9373L124.318 47.8925L124.334 47.8509L124.347 47.8061L124.363 47.7613L124.373 47.7165L124.385 47.6717L124.395 47.6237L124.402 47.5789L124.411 47.5341L124.414 47.4893L124.421 47.4413L124.424 47.3965L124.427 47.3485L124.43 47.3037V47.2557Z" stroke="#3b82f6" stroke-width="1.6" stroke-linecap="round" stroke-linejoin="bevel"/>
<path d="M101.067 45.3357L114.712 49.1757" stroke="#f87171" stroke-width="1.6" stroke-linecap="round" stroke-linejoin="bevel"/>
<path d="M115.656 45.5757L129.426 48.9357" stroke="#f87171" stroke-width="1.6" stroke-linecap="round" stroke-linejoin="bevel"/>
<path d="M72.3535 42.1036L85.6783 46.9292" stroke="#f87171" stroke-width="1.6" stroke-linecap="round" stroke-linejoin="bevel"/>
<path d="M86.6256 44.1581L100.123 48.4813" stroke="#f87171" stroke-width="1.6" stroke-linecap="round" stroke-linejoin="bevel"/>
</g>
<defs>
<clipPath id="clip0_31_3414">
<rect width="144" height="82" fill="white"/>
</clipPath>
</defs>
</svg>
